<?xml version="1.0" encoding="UTF-8" standalone="no"?>
<svg
   width="24"
   height="25"
   viewBox="0 0 24 25"
   fill="none"
   version="1.1"
   id="svg1"
   sodipodi:docname="arrow-left.svg"
   inkscape:version="1.3 (0e150ed6c4, 2023-07-21)"
   xmlns:inkscape="http://www.inkscape.org/namespaces/inkscape"
   xmlns:sodipodi="http://sodipodi.sourceforge.net/DTD/sodipodi-0.dtd"
   xmlns="http://www.w3.org/2000/svg"
   xmlns:svg="http://www.w3.org/2000/svg">
  <defs
     id="defs1" />
  <sodipodi:namedview
     id="namedview1"
     pagecolor="#505050"
     bordercolor="#ffffff"
     borderopacity="1"
     inkscape:showpageshadow="0"
     inkscape:pageopacity="0"
     inkscape:pagecheckerboard="1"
     inkscape:deskcolor="#505050"
     inkscape:zoom="19.666667"
     inkscape:cx="18.966102"
     inkscape:cy="25.042373"
     inkscape:window-width="2542"
     inkscape:window-height="1025"
     inkscape:window-x="9"
     inkscape:window-y="46"
     inkscape:window-maximized="1"
     inkscape:current-layer="svg1"
     showgrid="false" />
  <path
     d="M 2.0092,5.25228 7.055,1.7438 C 7.7615,1.24259 8.6697,1.14235 9.4771,1.54331 c 0.7064,0.40097 1.211,1.10267 1.211,1.90461 v 0.50121 h 2.2202 C 18.45872,3.94913 23,8.25955 23,13.5724 c 0,5.3128 -4.54128,9.7235 -10.0917,9.7235 H 4.633 c -1.0091,0 -1.8165,-0.8019 -1.8165,-1.8044 v -2.4058 c 0,-1.0024 0.8074,-1.8043 1.8165,-1.8043 h 8.2753 c 2.22014,0 3.93574,-1.7042 3.93574,-3.709 0,-2.0049 -1.81652,-3.60873 -3.93574,-3.60873 h -2.3211 v 0.60143 c 0,0.802 -0.5046,1.6039 -1.2111,2.0049 -0.3027,0.2005 -0.7064,0.3007 -1.11,0.3007 -0.5046,0 -0.9083,-0.1002 -1.312,-0.401 L 1.9083,8.96125 C 1.3028,8.56028 1,7.85858 1,7.15689 1,6.45519 1.4037,5.65325 2.0092,5.25228 Z"
     fill="black"
     id="path1"
     style="fill:#ffffff;fill-opacity:1"
     sodipodi:nodetypes="cccscsssssssssscscsccsc" />
</svg>
