<?xml version="1.0" encoding="UTF-8" standalone="no"?>
<svg
   width="92"
   height="92"
   id="screenshot-f57e8c0b-b9e4-803e-8003-2b8c8a1f1d04"
   viewBox="0 0 92 92"
   style="-webkit-print-color-adjust: exact;"
   fill="none"
   version="1.1"
   sodipodi:docname="history-icon.svg"
   inkscape:version="1.3 (0e150ed6c4, 2023-07-21)"
   xmlns:inkscape="http://www.inkscape.org/namespaces/inkscape"
   xmlns:sodipodi="http://sodipodi.sourceforge.net/DTD/sodipodi-0.dtd"
   xmlns="http://www.w3.org/2000/svg"
   xmlns:svg="http://www.w3.org/2000/svg">
  <defs
     id="defs2">
    <filter
       id="mask-powermask-path-effect17_inverse"
       inkscape:label="filtermask-powermask-path-effect17"
       style="color-interpolation-filters:sRGB"
       height="100"
       width="100"
       x="-50"
       y="-50">
      <feColorMatrix
         id="mask-powermask-path-effect17_primitive1"
         values="1"
         type="saturate"
         result="fbSourceGraphic" />
      <feColorMatrix
         id="mask-powermask-path-effect17_primitive2"
         values="-1 0 0 0 1 0 -1 0 0 1 0 0 -1 0 1 0 0 0 1 0 "
         in="fbSourceGraphic" />
    </filter>
  </defs>
  <sodipodi:namedview
     id="namedview2"
     pagecolor="#505050"
     bordercolor="#ffffff"
     borderopacity="1"
     inkscape:showpageshadow="0"
     inkscape:pageopacity="0"
     inkscape:pagecheckerboard="1"
     inkscape:deskcolor="#505050"
     showgrid="false"
     inkscape:zoom="6.3562751"
     inkscape:cx="44.837581"
     inkscape:cy="52.153186"
     inkscape:window-width="2542"
     inkscape:window-height="1025"
     inkscape:window-x="9"
     inkscape:window-y="46"
     inkscape:window-maximized="1"
     inkscape:current-layer="screenshot-f57e8c0b-b9e4-803e-8003-2b8c8a1f1d04" />
  <path
     id="path1"
     style="-webkit-print-color-adjust:exact;fill:#ffffff;fill-rule:evenodd;fill-opacity:1"
     d="M 46 0 C 20.700025 0 0 20.700025 0 46 C 0 71.299975 20.700025 92 46 92 C 71.299975 92 92 71.299975 92 46 C 92 20.700025 71.299975 0 46 0 z M 46 18.861328 C 48.759997 18.861328 50.599609 20.70094 50.599609 23.460938 L 50.599609 28.111328 L 50.599609 41.400391 L 68.539062 41.400391 C 71.29906 41.400391 73.140625 43.241956 73.140625 46.001953 C 73.140625 48.76195 71.29906 50.601562 68.539062 50.601562 L 46 50.601562 C 43.240003 50.601562 41.400391 48.76195 41.400391 46.001953 L 41.400391 23.460938 C 41.400391 23.307746 41.408742 23.159085 41.419922 23.011719 C 41.610163 20.504049 43.393194 18.861328 46 18.861328 z " />
</svg>
