<svg xmlns:xlink="http://www.w3.org/1999/xlink" width="92" xmlns="http://www.w3.org/2000/svg" height="92" id="screenshot-f57e8c0b-b9e4-803e-8003-2b8c8a1f1d04" viewBox="0 0 92 92" style="-webkit-print-color-adjust: exact;" fill="none" version="1.1"><g id="shape-f57e8c0b-b9e4-803e-8003-2b8c8a1f1d04" width="36" height="36" rx="0" ry="0" style="fill: rgb(0, 0, 0);"><g id="shape-f57e8c0b-b9e4-803e-8003-2b8c8a1f1d06"><g class="fills" id="fills-f57e8c0b-b9e4-803e-8003-2b8c8a1f1d06"><path rx="0" ry="0" d="M46.000,92.000C20.700,92.000,0.000,71.300,0.000,46.000C0.000,20.700,20.700,0.000,46.000,0.000C71.300,0.000,92.000,20.700,92.000,46.000C92.000,71.300,71.300,92.000,46.000,92.000ZZM46.000,9.200C25.760,9.200,9.200,25.760,9.200,46.000C9.200,66.240,25.760,82.800,46.000,82.800C66.240,82.800,82.800,66.240,82.800,46.000C82.800,25.760,66.240,9.200,46.000,9.200ZZ" style="fill: rgb(255, 255, 255); fill-opacity: 1;"/></g></g><g id="shape-f57e8c0b-b9e4-803e-8003-2b8c8a1f1d07"><g class="fills" id="fills-f57e8c0b-b9e4-803e-8003-2b8c8a1f1d07"><path rx="0" ry="0" d="M68.540,50.601L46.000,50.601C43.240,50.601,41.400,48.761,41.400,46.001L41.400,23.461C41.400,20.701,43.240,18.861,46.000,18.861C48.760,18.861,50.600,20.701,50.600,23.461L50.600,41.401L68.540,41.401C71.300,41.401,73.140,43.241,73.140,46.001C73.140,48.761,71.300,50.601,68.540,50.601ZZ" style="fill: rgb(255, 255, 255); fill-opacity: 1;"/></g></g></g></svg>