<svg xmlns:xlink="http://www.w3.org/1999/xlink" width="92" xmlns="http://www.w3.org/2000/svg" height="92" id="screenshot-f57e8c0b-b9e4-803e-8003-2b8c8a1f1d01" viewBox="881.103 2643 92 92" style="-webkit-print-color-adjust: exact;" fill="none" version="1.1"><g id="shape-f57e8c0b-b9e4-803e-8003-2b8c8a1f1d01"><g class="fills" id="fills-f57e8c0b-b9e4-803e-8003-2b8c8a1f1d01"><path fill-rule="evenodd" clip-rule="evenodd" rx="0" ry="0" d="M930.521,2653.283C928.360,2651.839,925.847,2651.839,923.686,2653.283L923.608,2653.334L895.184,2671.505C892.043,2673.508,890.303,2676.966,890.303,2680.431L890.303,2719.250C890.303,2722.915,893.198,2725.800,896.826,2725.800L957.381,2725.800C961.009,2725.800,963.903,2722.915,963.903,2719.250L963.903,2680.431C963.903,2676.848,962.008,2673.635,958.933,2671.448L930.521,2653.283ZL930.521,2653.283ZL930.521,2653.283ZM935.590,2645.606C930.357,2642.131,923.850,2642.131,918.616,2645.606L890.232,2663.751C890.233,2663.750,890.232,2663.751,890.232,2663.751C884.312,2667.529,881.103,2673.985,881.103,2680.431L881.103,2719.250C881.103,2727.974,888.095,2735.000,896.826,2735.000L957.381,2735.000C966.111,2735.000,973.103,2727.974,973.103,2719.250L973.103,2680.431C973.103,2673.306,969.263,2667.456,964.143,2663.864C964.089,2663.826,964.034,2663.789,963.978,2663.753L935.590,2645.606ZL935.590,2645.606Z" style="fill: rgb(255, 255, 255); fill-opacity: 1;"/></g></g></svg>