<?xml version="1.0" encoding="UTF-8" standalone="no"?>
<svg
   width="24"
   height="24"
   viewBox="0 0 24 24"
   fill="none"
   version="1.1"
   id="svg2"
   sodipodi:docname="pause.svg"
   inkscape:version="1.3 (0e150ed6c4, 2023-07-21)"
   xmlns:inkscape="http://www.inkscape.org/namespaces/inkscape"
   xmlns:sodipodi="http://sodipodi.sourceforge.net/DTD/sodipodi-0.dtd"
   xmlns="http://www.w3.org/2000/svg"
   xmlns:svg="http://www.w3.org/2000/svg">
  <defs
     id="defs2" />
  <sodipodi:namedview
     id="namedview2"
     pagecolor="#505050"
     bordercolor="#ffffff"
     borderopacity="1"
     inkscape:showpageshadow="0"
     inkscape:pageopacity="0"
     inkscape:pagecheckerboard="1"
     inkscape:deskcolor="#505050"
     inkscape:zoom="24.166667"
     inkscape:cx="12"
     inkscape:cy="12.02069"
     inkscape:window-width="2542"
     inkscape:window-height="1025"
     inkscape:window-x="9"
     inkscape:window-y="46"
     inkscape:window-maximized="1"
     inkscape:current-layer="svg2" />
  <path
     d="M7.37147 22H5.62288C4.16572 22 3 20.8 3 19.3V4.7C3 3.2 4.16572 2 5.62288 2H7.37147C8.82862 2 9.99434 3.2 9.99434 4.7V19.2C10.0915 20.8 8.92576 22 7.37147 22Z"
     fill="black"
     id="path1"
     style="fill:#ffffff;fill-opacity:1" />
  <path
     d="M18.375 22H16.625C15.1667 22 14 20.8 14 19.3V4.7C14 3.2 15.1667 2 16.625 2H18.375C19.8333 2 21 3.2 21 4.7V19.2C21 20.8 19.8333 22 18.375 22Z"
     fill="black"
     id="path2"
     style="fill:#ffffff;fill-opacity:1" />
</svg>
