<svg xmlns:xlink="http://www.w3.org/1999/xlink" width="70" xmlns="http://www.w3.org/2000/svg" height="70" id="screenshot-f57e8c0b-b9e4-803e-8003-2b812aa068d9" viewBox="810 507 70 70" style="-webkit-print-color-adjust: exact;" fill="none" version="1.1"><g id="shape-f57e8c0b-b9e4-803e-8003-2b812aa068d9"><g class="fills" id="fills-f57e8c0b-b9e4-803e-8003-2b812aa068d9"><path rx="0" ry="0" d="M877.057,559.857L870.280,553.071C868.853,551.643,866.713,551.643,865.287,553.071C863.860,554.500,863.860,556.643,865.287,558.072L872.064,564.857C873.134,565.929,873.134,567.714,872.064,568.786C870.994,569.857,869.210,569.857,868.140,568.786L857.439,558.072C858.153,557.357,858.866,557.000,859.580,556.286C864.930,550.929,868.140,543.428,868.140,535.929C868.140,528.071,865.287,520.929,859.580,515.571C848.166,504.143,829.975,504.143,818.561,515.571C807.146,527.000,807.146,545.214,818.561,556.643C823.911,562.000,831.401,565.214,838.892,565.214C843.172,565.214,847.452,564.143,851.019,562.357L862.790,574.143C864.573,575.929,867.427,577.000,869.923,577.000C872.420,577.000,874.917,575.929,877.057,574.143C880.981,569.857,880.981,563.429,877.057,559.857ZZM823.554,550.929C814.994,542.357,814.994,528.429,823.554,520.214C827.834,515.929,833.185,513.786,838.892,513.786C844.599,513.786,849.949,515.929,854.229,520.214C858.510,524.500,860.650,529.857,860.650,535.571C860.650,541.286,858.510,547.000,854.229,550.929C849.949,554.857,844.599,557.357,838.892,557.357C833.185,557.357,827.478,555.214,823.554,550.929ZZ" style="fill: rgb(255, 255, 255); fill-opacity: 1;"/></g></g></svg>