<?xml version="1.0" encoding="UTF-8" standalone="no"?>
<svg
   width="82.8"
   height="92"
   id="screenshot-f57e8c0b-b9e4-803e-8003-2b8c8a1f1cff"
   viewBox="1536 2645 82.8 92"
   style="-webkit-print-color-adjust: exact;"
   fill="none"
   version="1.1"
   sodipodi:docname="settings-icon.svg"
   inkscape:version="1.3 (0e150ed6c4, 2023-07-21)"
   xmlns:inkscape="http://www.inkscape.org/namespaces/inkscape"
   xmlns:sodipodi="http://sodipodi.sourceforge.net/DTD/sodipodi-0.dtd"
   xmlns="http://www.w3.org/2000/svg"
   xmlns:svg="http://www.w3.org/2000/svg">
  <defs
     id="defs1" />
  <sodipodi:namedview
     id="namedview1"
     pagecolor="#505050"
     bordercolor="#ffffff"
     borderopacity="1"
     inkscape:showpageshadow="0"
     inkscape:pageopacity="0"
     inkscape:pagecheckerboard="1"
     inkscape:deskcolor="#505050"
     inkscape:zoom="7.0048307"
     inkscape:cx="41.400002"
     inkscape:cy="46.039657"
     inkscape:window-width="1268"
     inkscape:window-height="1025"
     inkscape:window-x="1283"
     inkscape:window-y="46"
     inkscape:window-maximized="1"
     inkscape:current-layer="fills-f57e8c0b-b9e4-803e-8003-2b8c8a1f1cff" />
  <g
     id="shape-f57e8c0b-b9e4-803e-8003-2b8c8a1f1cff">
    <g
       class="fills"
       id="fills-f57e8c0b-b9e4-803e-8003-2b8c8a1f1cff">
      <path
         fill-rule="evenodd"
         clip-rule="evenodd"
         rx="0"
         ry="0"
         d="m 1569.18,2647.128 c 4.976,-2.837 11.05,-2.837 16.027,0 0.037,0.022 0.074,0.043 0.111,0.066 l 25.617,15.692 c 5.054,2.911 7.865,8.171 7.865,13.879 v 28.896 c 0,5.518 -2.669,10.925 -7.52,13.496 l -25.548,15.649 c -0.037,0.023 -0.074,0.045 -0.111,0.066 -4.977,2.837 -11.051,2.837 -16.027,0 -0.038,-0.021 -0.075,-0.043 -0.111,-0.066 l -25.618,-15.692 c -5.055,-2.911 -7.865,-8.171 -7.865,-13.878 v -28.471 c 0,-5.703 2.805,-10.959 7.852,-13.871 l 25.191,-15.684 c 0.045,-0.028 0.091,-0.055 0.137,-0.082 z m 8.22,35.161 c -4.801,0 -8.694,3.995 -8.694,8.924 0,4.928 3.893,8.923 8.694,8.923 4.802,0 8.694,-3.995 8.694,-8.923 0,-4.929 -3.892,-8.924 -8.694,-8.924 z m -16.974,8.924 c 0,-9.623 7.6,-17.423 16.974,-17.423 9.375,0 16.974,7.8 16.974,17.423 0,9.622 -7.599,17.422 -16.974,17.422 -9.374,0 -16.974,-7.8 -16.974,-17.422 z"
         style="fill:#ffffff;fill-opacity:1"
         id="path1"
         sodipodi:nodetypes="ccccssccccccsscccssssssssss" />
    </g>
  </g>
</svg>
