<svg xmlns:xlink="http://www.w3.org/1999/xlink" width="82.8" xmlns="http://www.w3.org/2000/svg" height="92" id="screenshot-f57e8c0b-b9e4-803e-8003-2b8c8a1f1cff" viewBox="1536 2645 82.8 92" style="-webkit-print-color-adjust: exact;" fill="none" version="1.1"><g id="shape-f57e8c0b-b9e4-803e-8003-2b8c8a1f1cff"><g class="fills" id="fills-f57e8c0b-b9e4-803e-8003-2b8c8a1f1cff"><path fill-rule="evenodd" clip-rule="evenodd" rx="0" ry="0" d="M1569.180,2647.128C1574.156,2644.291,1580.230,2644.291,1585.207,2647.128C1585.244,2647.150,1585.281,2647.171,1585.318,2647.194L1610.935,2662.886C1615.989,2665.797,1618.800,2671.057,1618.800,2676.765L1618.800,2705.661C1618.800,2711.179,1616.131,2716.586,1611.280,2719.157L1585.732,2734.806C1585.695,2734.829,1585.658,2734.851,1585.621,2734.872C1580.644,2737.709,1574.570,2737.709,1569.594,2734.872C1569.556,2734.851,1569.519,2734.829,1569.483,2734.806L1543.865,2719.114C1538.810,2716.203,1536.000,2710.943,1536.000,2705.236L1536.000,2676.765C1536.000,2671.062,1538.805,2665.806,1543.852,2662.894L1569.043,2647.210C1569.088,2647.182,1569.134,2647.155,1569.180,2647.128ZZM1573.263,2654.523L1548.083,2670.199C1548.038,2670.227,1547.993,2670.254,1547.947,2670.280C1545.587,2671.626,1544.280,2673.996,1544.280,2676.765L1544.280,2705.236C1544.280,2708.004,1545.587,2710.374,1547.947,2711.720C1547.984,2711.741,1548.021,2711.763,1548.058,2711.785L1573.665,2727.471C1576.114,2728.845,1579.100,2728.845,1581.549,2727.471L1607.157,2711.785C1607.245,2711.731,1607.335,2711.680,1607.427,2711.634C1609.105,2710.772,1610.520,2708.584,1610.520,2705.661L1610.520,2676.765C1610.520,2673.996,1609.213,2671.626,1606.854,2670.280C1606.816,2670.259,1606.779,2670.237,1606.743,2670.215L1581.135,2654.529C1578.690,2653.158,1575.710,2653.155,1573.263,2654.523ZZM1577.400,2682.289C1572.599,2682.289,1568.706,2686.284,1568.706,2691.213C1568.706,2696.141,1572.599,2700.136,1577.400,2700.136C1582.202,2700.136,1586.094,2696.141,1586.094,2691.213C1586.094,2686.284,1582.202,2682.289,1577.400,2682.289ZZM1560.426,2691.213C1560.426,2681.590,1568.026,2673.790,1577.400,2673.790C1586.775,2673.790,1594.374,2681.590,1594.374,2691.213C1594.374,2700.835,1586.775,2708.635,1577.400,2708.635C1568.026,2708.635,1560.426,2700.835,1560.426,2691.213ZZ" style="fill: rgb(255, 255, 255); fill-opacity: 1;"/></g></g></svg>